<?xml version="1.0"?>
<svg xmlns="http://www.w3.org/2000/svg" width="45" height="45" viewBox="0 0 45 45" fill="none">
<path d="M20.1953 9.2998H26.6578V12.5311H20.1953V9.2998Z" fill="#B3BDC4"/>
<path d="M3.28203 24.1496C2.93828 24.5621 2.80078 26.3496 2.80078 26.3496V36.6621H40.5445C40.5445 36.6621 42.8133 30.1996 42.8133 16.0371C42.8133 11.0184 39.6508 10.8809 28.6508 10.8809C17.6508 10.8809 14.9008 11.9121 12.5633 14.1121C10.2945 16.1059 5.82578 21.1246 3.28203 24.1496Z" fill="#E1E8ED"/>
<path d="M13.5242 14.7996L5.48047 23.1184H18.8867V12.5996C16.4117 12.5996 14.4867 13.7684 13.5242 14.7996Z" fill="#3E4347"/>
<path d="M42.7441 37.9684C42.7441 38.6559 42.1941 39.2746 41.4379 39.2746H2.80039C2.11289 39.2746 1.49414 38.7246 1.49414 37.9684C1.49414 37.2809 2.04414 36.6621 2.80039 36.6621H41.4379C42.1941 36.6621 42.7441 37.2809 42.7441 37.9684Z" fill="#B3BDC4"/>
<path d="M23.4266 5.10645C22.3266 5.10645 21.6391 6.0002 21.5016 7.03145C21.4328 7.58145 20.8828 9.3002 20.8828 9.3002H26.0391C26.0391 9.3002 25.4891 7.6502 25.4203 7.03145C25.2141 6.0002 24.4578 5.10645 23.4266 5.10645Z" fill="#F15744"/>
<path d="M22.1191 7.03086C22.1191 7.71836 22.6691 8.33711 23.4254 8.33711V5.72461C22.6691 5.72461 22.1191 6.34336 22.1191 7.03086Z" fill="#FFC7CE"/>
<path d="M27.6184 1.875L25.6934 5.10625L28.8559 2.8375L27.6184 1.875Z" fill="#F15744"/>
<path d="M19.1613 1.875L21.1551 5.10625L17.9238 2.8375L19.1613 1.875Z" fill="#F15744"/>
<path d="M26.6562 6.4127L29.8188 5.10645L30.5063 6.4127H26.6562Z" fill="#F15744"/>
<path d="M20.1938 6.4127L16.9625 5.10645L16.3438 6.4127H20.1938Z" fill="#F15744"/>
<path d="M4.51953 32.6059V27.6559C4.51953 26.9684 3.96953 26.3496 3.21328 26.3496H2.80078V33.9121H3.21328C3.90078 33.9121 4.51953 33.2934 4.51953 32.6059Z" fill="#62727A"/>
<path d="M42.332 25.6631H22.7383L20.1258 28.2756H4.51953V30.8881H21.5008L24.0445 28.3443H42.057C42.1945 27.5193 42.2633 26.6256 42.332 25.6631Z" fill="#F15744"/>
<path d="M36.2809 18.3066C36.2809 17.9629 36.0059 17.6879 35.6621 17.6879H33.3934C33.0496 17.6879 32.7746 17.4129 32.7746 17.0691V14.8004C32.7746 14.4566 32.4996 14.1816 32.1559 14.1816H31.5371C31.1934 14.1816 30.9184 14.4566 30.9184 14.8004V17.0004C30.9184 17.3441 30.6434 17.6191 30.2996 17.6191H28.0309C27.6871 17.6191 27.4121 17.8941 27.4121 18.2379V18.8566C27.4121 19.2004 27.6871 19.4754 28.0309 19.4754H30.2996C30.6434 19.4754 30.9184 19.7504 30.9184 20.0941V22.5004C30.9184 22.8441 31.1934 23.1191 31.5371 23.1191H32.1559C32.4996 23.1191 32.7746 22.8441 32.7746 22.5004V20.2316C32.7746 19.8879 33.0496 19.6129 33.3934 19.6129H35.6621C36.0059 19.6129 36.2809 19.3379 36.2809 18.9941V18.3066Z" fill="#F15744"/>
<path d="M38.8945 37.9688C38.8945 35.15 36.557 32.8125 33.7383 32.8125C30.9195 32.8125 28.582 35.15 28.582 37.9688C28.582 40.7875 30.9195 43.125 33.7383 43.125C36.557 43.125 38.8945 40.7875 38.8945 37.9688Z" fill="#3E4347"/>
<path d="M33.7375 35.0127C35.3875 35.0127 36.6938 36.3189 36.6938 37.9689C36.6938 39.6189 35.3875 40.9252 33.7375 40.9252C32.0875 40.9252 30.7812 39.6189 30.7812 37.9689C30.7812 36.3189 32.0875 35.0127 33.7375 35.0127Z" fill="#DAE3EA"/>
<path d="M33.7387 35.7684C34.1563 35.7684 34.4949 35.4298 34.4949 35.0121C34.4949 34.5944 34.1563 34.2559 33.7387 34.2559C33.321 34.2559 32.9824 34.5944 32.9824 35.0121C32.9824 35.4298 33.321 35.7684 33.7387 35.7684Z" fill="#3E4347"/>
<path d="M31.1938 37.2811C31.6114 37.2811 31.95 36.9425 31.95 36.5248C31.95 36.1071 31.6114 35.7686 31.1938 35.7686C30.7761 35.7686 30.4375 36.1071 30.4375 36.5248C30.4375 36.9425 30.7761 37.2811 31.1938 37.2811Z" fill="#3E4347"/>
<path d="M31.1938 40.1688C31.6114 40.1688 31.95 39.8302 31.95 39.4125C31.95 38.9948 31.6114 38.6562 31.1938 38.6562C30.7761 38.6562 30.4375 38.9948 30.4375 39.4125C30.4375 39.8302 30.7761 40.1688 31.1938 40.1688Z" fill="#3E4347"/>
<path d="M33.7387 41.6805C34.1563 41.6805 34.4949 41.3419 34.4949 40.9242C34.4949 40.5066 34.1563 40.168 33.7387 40.168C33.321 40.168 32.9824 40.5066 32.9824 40.9242C32.9824 41.3419 33.321 41.6805 33.7387 41.6805Z" fill="#3E4347"/>
<path d="M36.2816 40.1688C36.6993 40.1688 37.0379 39.8302 37.0379 39.4125C37.0379 38.9948 36.6993 38.6562 36.2816 38.6562C35.864 38.6562 35.5254 38.9948 35.5254 39.4125C35.5254 39.8302 35.864 40.1688 36.2816 40.1688Z" fill="#3E4347"/>
<path d="M36.6242 37.1429C36.2805 37.3492 35.7992 37.2117 35.593 36.8679C35.3867 36.5242 35.5243 36.0429 35.868 35.8367C36.2117 35.6304 36.693 35.7679 36.8992 36.1117C37.1055 36.4554 36.968 36.9367 36.6242 37.1429Z" fill="#3E4347"/>
<path d="M33.7367 39.4129C34.5341 39.4129 35.1805 38.7665 35.1805 37.9691C35.1805 37.1718 34.5341 36.5254 33.7367 36.5254C32.9394 36.5254 32.293 37.1718 32.293 37.9691C32.293 38.7665 32.9394 39.4129 33.7367 39.4129Z" fill="#62727A"/>
<path d="M15.6562 37.9688C15.6562 35.15 13.3188 32.8125 10.5 32.8125C7.68125 32.8125 5.34375 35.15 5.34375 37.9688C5.34375 40.7875 7.68125 43.125 10.5 43.125C13.3875 43.125 15.6562 40.7875 15.6562 37.9688Z" fill="#3E4347"/>
<path d="M13.4555 37.9689C13.4555 36.3189 12.1492 35.0127 10.4992 35.0127C8.84922 35.0127 7.54297 36.3189 7.54297 37.9689C7.54297 39.6189 8.84922 40.9252 10.4992 40.9252C12.1492 40.9252 13.4555 39.6189 13.4555 37.9689Z" fill="#DAE3EA"/>
<path d="M10.5004 35.7684C10.9181 35.7684 11.2566 35.4298 11.2566 35.0121C11.2566 34.5944 10.9181 34.2559 10.5004 34.2559C10.0827 34.2559 9.74414 34.5944 9.74414 35.0121C9.74414 35.4298 10.0827 35.7684 10.5004 35.7684Z" fill="#3E4347"/>
<path d="M7.95547 37.2811C8.37313 37.2811 8.71172 36.9425 8.71172 36.5248C8.71172 36.1071 8.37313 35.7686 7.95547 35.7686C7.5378 35.7686 7.19922 36.1071 7.19922 36.5248C7.19922 36.9425 7.5378 37.2811 7.95547 37.2811Z" fill="#3E4347"/>
<path d="M7.61214 38.7927C7.95589 38.5865 8.43714 38.724 8.64339 39.0677C8.84964 39.4115 8.71214 39.8927 8.36839 40.099C8.02464 40.3052 7.54339 40.1677 7.33714 39.824C7.13089 39.4802 7.26839 38.999 7.61214 38.7927Z" fill="#3E4347"/>
<path d="M10.5004 41.6805C10.9181 41.6805 11.2566 41.3419 11.2566 40.9242C11.2566 40.5066 10.9181 40.168 10.5004 40.168C10.0827 40.168 9.74414 40.5066 9.74414 40.9242C9.74414 41.3419 10.0827 41.6805 10.5004 41.6805Z" fill="#3E4347"/>
<path d="M13.0434 40.1688C13.461 40.1688 13.7996 39.8302 13.7996 39.4125C13.7996 38.9948 13.461 38.6562 13.0434 38.6562C12.6257 38.6562 12.2871 38.9948 12.2871 39.4125C12.2871 39.8302 12.6257 40.1688 13.0434 40.1688Z" fill="#3E4347"/>
<path d="M13.0434 37.2811C13.461 37.2811 13.7996 36.9425 13.7996 36.5248C13.7996 36.1071 13.461 35.7686 13.0434 35.7686C12.6257 35.7686 12.2871 36.1071 12.2871 36.5248C12.2871 36.9425 12.6257 37.2811 13.0434 37.2811Z" fill="#3E4347"/>
<path d="M10.5004 39.4129C11.2978 39.4129 11.9441 38.7665 11.9441 37.9691C11.9441 37.1718 11.2978 36.5254 10.5004 36.5254C9.70303 36.5254 9.05664 37.1718 9.05664 37.9691C9.05664 38.7665 9.70303 39.4129 10.5004 39.4129Z" fill="#62727A"/>
</svg>
