<svg width="22" height="18" viewBox="0 0 22 18" fill="none" xmlns="http://www.w3.org/2000/svg">
<path d="M7.90595 13.5006H14.0934C14.1966 13.5006 14.2809 13.4162 14.2809 13.3131V11.3443C14.2809 11.2412 14.1966 11.1568 14.0934 11.1568H13.1559C13.0528 11.1568 12.9684 11.2412 12.9684 11.3443V12.1881H9.03095V11.3443C9.03095 11.2412 8.94657 11.1568 8.84345 11.1568H7.90595C7.80282 11.1568 7.71845 11.2412 7.71845 11.3443V13.3131C7.71845 13.4162 7.80282 13.5006 7.90595 13.5006ZM15.8747 10.6178C15.8747 10.8664 15.9735 11.1049 16.1493 11.2807C16.3251 11.4565 16.5636 11.5553 16.8122 11.5553C17.0608 11.5553 17.2993 11.4565 17.4751 11.2807C17.6509 11.1049 17.7497 10.8664 17.7497 10.6178C17.7497 10.3691 17.6509 10.1307 17.4751 9.95486C17.2993 9.77905 17.0608 9.68027 16.8122 9.68027C16.5636 9.68027 16.3251 9.77905 16.1493 9.95486C15.9735 10.1307 15.8747 10.3691 15.8747 10.6178ZM21.4763 6.68965L20.9208 5.71934C20.8958 5.67656 20.8549 5.64541 20.8071 5.63267C20.7592 5.61994 20.7083 5.62666 20.6653 5.65137L19.477 6.34512L17.6419 1.27793C17.545 0.975573 17.3545 0.711831 17.098 0.524784C16.8414 0.337738 16.532 0.237066 16.2145 0.237305H6.05907C5.24579 0.237305 4.52392 0.762305 4.27314 1.53809L2.5247 6.34746L1.33407 5.65371C1.29115 5.629 1.24019 5.62228 1.19232 5.63501C1.14446 5.64775 1.10358 5.67891 1.07861 5.72168L0.523136 6.68965C0.471574 6.77871 0.502043 6.89121 0.591105 6.94277L2.00673 7.76777L1.66689 8.70527C1.63876 8.78027 1.6247 8.85996 1.6247 8.93965V17.1006C1.6247 17.4686 1.90126 17.7662 2.24111 17.7662H3.82548C4.11376 17.7662 4.36454 17.5482 4.42548 17.2436L4.60595 16.36H17.3934L17.5739 17.2436C17.6372 17.5482 17.8856 17.7662 18.1739 17.7662H19.7583C20.0981 17.7662 20.3747 17.4686 20.3747 17.1006V8.93965C20.3747 8.85996 20.3606 8.78027 20.3325 8.70527L19.9927 7.76777L21.4059 6.94277C21.4485 6.91821 21.4797 6.87792 21.4928 6.83058C21.506 6.78325 21.5 6.73264 21.4763 6.68965V6.68965ZM18.6872 9.11777V14.6725H3.3122V9.11777L3.67782 8.10996H18.3216L18.6872 9.11777ZM5.85986 2.11231L5.87157 2.08184L5.88095 2.05137C5.90673 1.97402 5.97704 1.92246 6.05907 1.92246H16.0809L17.8481 6.79746H4.15595L5.85986 2.11231ZM4.2497 10.6178C4.2497 10.8664 4.34847 11.1049 4.52429 11.2807C4.7001 11.4565 4.93856 11.5553 5.1872 11.5553C5.43584 11.5553 5.6743 11.4565 5.85011 11.2807C6.02593 11.1049 6.1247 10.8664 6.1247 10.6178C6.1247 10.3691 6.02593 10.1307 5.85011 9.95486C5.6743 9.77905 5.43584 9.68027 5.1872 9.68027C4.93856 9.68027 4.7001 9.77905 4.52429 9.95486C4.34847 10.1307 4.2497 10.3691 4.2497 10.6178Z" fill="#1361A0"/>
</svg>
