<svg width="16" height="16" viewBox="0 0 16 16" fill="none" xmlns="http://www.w3.org/2000/svg">
<mask id="path-1-inside-1_253_9149" fill="white">
<path d="M2.00001 6.49134C1.99835 6.59269 2.02754 6.69215 2.08371 6.77654C2.13988 6.86092 2.22037 6.92624 2.31451 6.96384L7.11501 8.88434L9.03551 13.6853C9.0726 13.7782 9.13669 13.8578 9.2195 13.9139C9.3023 13.9699 9.40001 13.9999 9.50001 13.9998H9.50801C9.60927 13.9982 9.70767 13.9659 9.79017 13.9072C9.87267 13.8484 9.93538 13.766 9.97001 13.6708L13.97 2.67084C14.0027 2.58135 14.0092 2.48437 13.9887 2.39132C13.9682 2.29826 13.9215 2.21301 13.8541 2.14561C13.7868 2.0782 13.7016 2.03145 13.6085 2.01085C13.5155 1.99025 13.4185 1.99666 13.329 2.02934L2.32901 6.02934C2.23379 6.06405 2.15135 6.12686 2.09261 6.20944C2.03386 6.29203 2.00157 6.3905 2.00001 6.49184V6.49134Z"/>
</mask>
<path d="M2.00001 6.49134C1.99835 6.59269 2.02754 6.69215 2.08371 6.77654C2.13988 6.86092 2.22037 6.92624 2.31451 6.96384L7.11501 8.88434L9.03551 13.6853C9.0726 13.7782 9.13669 13.8578 9.2195 13.9139C9.3023 13.9699 9.40001 13.9999 9.50001 13.9998H9.50801C9.60927 13.9982 9.70767 13.9659 9.79017 13.9072C9.87267 13.8484 9.93538 13.766 9.97001 13.6708L13.97 2.67084C14.0027 2.58135 14.0092 2.48437 13.9887 2.39132C13.9682 2.29826 13.9215 2.21301 13.8541 2.14561C13.7868 2.0782 13.7016 2.03145 13.6085 2.01085C13.5155 1.99025 13.4185 1.99666 13.329 2.02934L2.32901 6.02934C2.23379 6.06405 2.15135 6.12686 2.09261 6.20944C2.03386 6.29203 2.00157 6.3905 2.00001 6.49184V6.49134Z" fill="#18A0FB" fill-opacity="0.15"/>
<path d="M2.00001 6.49134H3.00001L1.00014 6.47502L2.00001 6.49134ZM2.31451 6.96384L2.68595 6.03538L2.68537 6.03515L2.31451 6.96384ZM7.11501 8.88434L8.04348 8.51293L7.88432 8.11505L7.48645 7.95588L7.11501 8.88434ZM9.03551 13.6853L9.96414 13.3143L9.96398 13.3139L9.03551 13.6853ZM9.50001 13.9998V12.9998H9.49964L9.50001 13.9998ZM9.50801 13.9998V14.9998H9.51588L9.52375 14.9997L9.50801 13.9998ZM9.97001 13.6708L10.9098 14.0127L10.9098 14.0126L9.97001 13.6708ZM13.97 2.67084L13.0309 2.32721L13.0302 2.32909L13.97 2.67084ZM13.329 2.02934L13.6707 2.96913L13.6719 2.96871L13.329 2.02934ZM2.32901 6.02934L1.98726 5.08954L1.98647 5.08983L2.32901 6.02934ZM2.00001 6.49184H1.00001L2.99989 6.50726L2.00001 6.49184ZM1.00014 6.47502C0.995178 6.77909 1.08275 7.07748 1.25125 7.33063L2.91617 6.22245C2.97233 6.30683 3.00153 6.4063 2.99987 6.50765L1.00014 6.47502ZM1.25125 7.33063C1.41975 7.58378 1.66122 7.77974 1.94364 7.89252L2.68537 6.03515C2.77951 6.07275 2.86 6.13807 2.91617 6.22245L1.25125 7.33063ZM1.94307 7.89229L6.74357 9.81279L7.48645 7.95588L2.68595 6.03538L1.94307 7.89229ZM6.18654 9.25574L8.10704 14.0567L9.96398 13.3139L8.04348 8.51293L6.18654 9.25574ZM8.10687 14.0563C8.21817 14.3349 8.41044 14.5737 8.65885 14.7419L9.78015 13.0858C9.86295 13.1419 9.92704 13.2215 9.96414 13.3143L8.10687 14.0563ZM8.65885 14.7419C8.90725 14.9101 9.20038 14.9999 9.50037 14.9998L9.49964 12.9998C9.59963 12.9998 9.69734 13.0297 9.78015 13.0858L8.65885 14.7419ZM9.50001 14.9998H9.50801V12.9998H9.50001V14.9998ZM9.52375 14.9997C9.82756 14.9949 10.1227 14.898 10.3702 14.7217L9.2101 13.0926C9.29259 13.0339 9.39099 13.0016 9.49226 13L9.52375 14.9997ZM10.3702 14.7217C10.6177 14.5455 10.8059 14.2982 10.9098 14.0127L9.03026 13.329C9.06489 13.2338 9.1276 13.1514 9.2101 13.0926L10.3702 14.7217ZM10.9098 14.0126L14.9098 3.01258L13.0302 2.32909L9.03021 13.3291L10.9098 14.0126ZM14.9091 3.01446C15.0073 2.746 15.0268 2.45505 14.9652 2.1759L13.0122 2.60673C12.9917 2.51368 12.9982 2.4167 13.0309 2.32721L14.9091 3.01446ZM14.9652 2.1759C14.9037 1.89674 14.7636 1.641 14.5615 1.43878L13.1468 2.85244C13.0794 2.78503 13.0327 2.69978 13.0122 2.60673L14.9652 2.1759ZM14.5615 1.43878C14.3595 1.23656 14.1038 1.09629 13.8247 1.03449L13.3924 2.9872C13.2993 2.9666 13.2141 2.91984 13.1468 2.85244L14.5615 1.43878ZM13.8247 1.03449C13.5456 0.972694 13.2547 0.99194 12.9861 1.08996L13.6719 2.96871C13.5824 3.00138 13.4854 3.0078 13.3924 2.9872L13.8247 1.03449ZM12.9873 1.08954L1.98726 5.08954L2.67075 6.96913L13.6707 2.96913L12.9873 1.08954ZM1.98647 5.08983C1.70101 5.19391 1.45387 5.3822 1.27774 5.62979L2.90747 6.78909C2.84884 6.87152 2.76657 6.93419 2.67154 6.96884L1.98647 5.08983ZM1.27774 5.62979C1.10162 5.87738 1.00481 6.1726 1.00012 6.47641L2.99989 6.50726C2.99833 6.6084 2.9661 6.70667 2.90747 6.78909L1.27774 5.62979ZM3.00001 6.49184V6.49134H1.00001V6.49184H3.00001Z" fill="#18A0FB" mask="url(#path-1-inside-1_253_9149)"/>
</svg>
