<svg width="125" height="125" viewBox="0 0 125 125" fill="none" xmlns="http://www.w3.org/2000/svg">
<circle cx="62.5" cy="62.5" r="62.5" fill="black"/>
<circle cx="62.5" cy="62.5" r="46.5" stroke="white" stroke-opacity="0.8" stroke-width="10" stroke-dasharray="1 12"/>
<path d="M48.5051 33.3163C48.6657 33.5082 48.8809 33.6468 49.1221 33.7136C49.3632 33.7804 49.619 33.7723 49.8555 33.6904L61.9208 29.5214L73.262 35.3828C73.4813 35.4963 73.7295 35.5414 73.9747 35.5123C74.2198 35.4832 74.4507 35.3813 74.6373 35.2197L74.6522 35.2068C74.8387 35.0402 74.9702 34.8209 75.0294 34.578C75.0885 34.335 75.0725 34.0798 74.9834 33.8462L64.6822 6.84683C64.5988 6.62685 64.4543 6.4353 64.2656 6.29472C64.077 6.15415 63.8521 6.0704 63.6175 6.05335C63.3828 6.03631 63.1482 6.08666 62.9412 6.19849C62.7342 6.31032 62.5635 6.47897 62.4492 6.68457L48.373 31.9222C48.2513 32.1409 48.1989 32.3913 48.2226 32.6404C48.2463 32.8895 48.3451 33.1255 48.5059 33.3172L48.5051 33.3163Z" fill="#F82929"/>
<path d="M73.6346 76H68.1746L55.8116 57.319V76H50.3516V48.739H55.8116L68.1746 67.459V48.739H73.6346V76Z" fill="white"/>
</svg>
