<svg width="15" height="15" viewBox="0 0 15 15" fill="none" xmlns="http://www.w3.org/2000/svg">
<path d="M14.8492 3.87375L13.068 2.50125C12.947 2.42354 12.8154 2.36368 12.6772 2.3235C12.5397 2.27898 12.3965 2.25423 12.252 2.25H7.125L7.72575 6H12.252C12.375 6 12.5288 5.97225 12.6765 5.9265C12.8243 5.88075 12.9668 5.81775 13.0673 5.7495L14.8485 4.3755C14.9497 4.30725 15 4.2165 15 4.125C15 4.0335 14.9497 3.94275 14.8492 3.87375ZM6.375 0.75H5.625C5.52554 0.75 5.43016 0.789509 5.35984 0.859835C5.28951 0.930161 5.25 1.02554 5.25 1.125V3.75H2.748C2.6235 3.75 2.4705 3.77775 2.32275 3.82425C2.17425 3.86925 2.0325 3.9315 1.932 4.00125L0.15075 5.37375C0.0495 5.442 0 5.5335 0 5.625C0 5.71575 0.0495 5.8065 0.15075 5.87625L1.932 7.25025C2.0325 7.3185 2.17425 7.3815 2.32275 7.4265C2.4705 7.47225 2.6235 7.5 2.748 7.5H5.25V13.875C5.25 13.9745 5.28951 14.0698 5.35984 14.1402C5.43016 14.2105 5.52554 14.25 5.625 14.25H6.375C6.47446 14.25 6.56984 14.2105 6.64017 14.1402C6.71049 14.0698 6.75 13.9745 6.75 13.875V1.125C6.75 1.02554 6.71049 0.930161 6.64017 0.859835C6.56984 0.789509 6.47446 0.75 6.375 0.75Z" fill="#18A0FB"/>
</svg>
