<svg width="15" height="15" viewBox="0 0 15 15" fill="none" xmlns="http://www.w3.org/2000/svg">
<path d="M6.99463 7.85596L1.99072 3.96533L1.58789 3.65186L1.99219 3.9668V11.6016H13.0078V3.9668L8.00097 7.85596C7.85707 7.96776 7.68003 8.02845 7.4978 8.02845C7.31557 8.02845 7.13853 7.96776 6.99463 7.85596Z" fill="#7ABFFF" fill-opacity="0.6"/>
<path d="M12.8364 2.91211L13.4121 3.65186L13.0078 3.9668L13.4136 3.65186L12.8379 2.91211H12.8364Z" fill="#7ABFFF" fill-opacity="0.6"/>
<path d="M13.5938 2.34375H1.40625C1.14697 2.34375 0.9375 2.55322 0.9375 2.8125V12.1875C0.9375 12.4468 1.14697 12.6562 1.40625 12.6562H13.5938C13.853 12.6562 14.0625 12.4468 14.0625 12.1875V2.8125C14.0625 2.55322 13.853 2.34375 13.5938 2.34375ZM12.2095 3.3999L7.5 7.06055L2.79053 3.3999H12.2095ZM13.0078 3.9668V11.6016H1.99219V3.9668L1.58789 3.65186L1.99072 3.96533L6.99463 7.85596C7.13853 7.96775 7.31557 8.02844 7.4978 8.02844C7.68003 8.02844 7.85707 7.96775 8.00098 7.85596L13.0078 3.9668L13.4121 3.65186L12.8364 2.91211H12.8379L13.4136 3.65186L13.0078 3.9668Z" fill="#18A0FB"/>
</svg>
