<svg width="15" height="15" viewBox="0 0 15 15" fill="none" xmlns="http://www.w3.org/2000/svg">
<path d="M10.5718 2.7085L8.94873 4.33301L10.7183 6.10107L10.6011 6.41748C10.2487 7.37697 9.69187 8.24836 8.96922 8.97126C8.24658 9.69416 7.37538 10.2513 6.41602 10.604L6.09961 10.7212L6.08643 10.708L4.33154 8.95019L2.7085 10.5747L4.23926 12.1055C4.39746 12.2622 4.62012 12.3354 4.83691 12.2988C6.56397 12.0132 8.28516 11.0845 9.68408 9.68555C11.083 8.28662 12.0117 6.56396 12.2974 4.83691C12.334 4.62012 12.2607 4.39746 12.1025 4.23926L10.5718 2.7085Z" fill="#1A91FF" fill-opacity="0.15"/>
<path d="M12.8481 3.49658L11.2881 1.93799C11.0977 1.74756 10.8428 1.64062 10.5732 1.64062C10.3037 1.64062 10.0488 1.74609 9.8584 1.93799L8.17822 3.61523C7.98779 3.80566 7.88086 4.06201 7.88086 4.33154C7.88086 4.60254 7.98633 4.85596 8.17822 5.04785L9.49072 6.36182C9.19172 7.05848 8.76212 7.69145 8.2251 8.22656C7.6875 8.76709 7.05908 9.19336 6.36182 9.49512L5.04932 8.18115C4.85889 7.99072 4.604 7.88379 4.33447 7.88379C4.20153 7.8833 4.06982 7.90935 3.94707 7.96041C3.82432 8.01147 3.713 8.08652 3.61963 8.18115L1.93799 9.8584C1.74756 10.0488 1.64062 10.3052 1.64062 10.5747C1.64062 10.8457 1.74609 11.0991 1.93799 11.291L3.49658 12.8496C3.82178 13.1748 4.27002 13.3608 4.72998 13.3608C4.8252 13.3608 4.91748 13.3535 5.01123 13.3374C6.95068 13.0181 8.87549 11.9854 10.4297 10.4326C11.9824 8.87695 13.0137 6.95215 13.3359 5.01123C13.4282 4.46045 13.2437 3.89355 12.8481 3.49658ZM12.2974 4.83691C12.0117 6.56396 11.083 8.28662 9.68408 9.68555C8.28516 11.0845 6.56397 12.0132 4.83691 12.2988C4.62012 12.3354 4.39746 12.2622 4.23926 12.1055L2.7085 10.5747L4.33154 8.9502L6.08643 10.708L6.09961 10.7212L6.41602 10.604C7.37538 10.2513 8.24658 9.69416 8.96922 8.97126C9.69187 8.24836 10.2487 7.37697 10.6011 6.41748L10.7183 6.10107L8.94873 4.33301L10.5718 2.7085L12.1025 4.23926C12.2607 4.39746 12.334 4.62012 12.2974 4.83691Z" fill="#1A91FF"/>
</svg>
