<svg width="19" height="22" viewBox="0 0 19 22" fill="none" xmlns="http://www.w3.org/2000/svg">
<path d="M15.9993 1.37352C15.9994 1.23638 15.9722 1.1006 15.9195 0.973977C15.8669 0.847367 15.7897 0.732417 15.6924 0.635757C15.5951 0.539097 15.4797 0.462627 15.3527 0.410757C15.2258 0.358887 15.0898 0.332638 14.9527 0.333518H1.71268C1.57555 0.332638 1.43959 0.358887 1.31264 0.410757C1.18569 0.462627 1.07026 0.539097 0.972976 0.635757C0.875696 0.732417 0.798486 0.847367 0.745806 0.973977C0.693126 1.1006 0.666006 1.23638 0.666016 1.37352V17.9602C0.666006 18.0973 0.693126 18.2331 0.745806 18.3597C0.798486 18.4863 0.875696 18.6013 0.972976 18.6979C1.07026 18.7946 1.18569 18.8711 1.31264 18.9229C1.43959 18.9748 1.57555 19.0011 1.71268 19.0002H2.05935V1.71352H15.9993V1.37352Z" fill="#1361A0"/>
<path d="M17.6673 3H4.33398C3.7817 3 3.33398 3.44772 3.33398 4V20.6667C3.33398 21.219 3.7817 21.6667 4.33398 21.6667H17.6673C18.2196 21.6667 18.6673 21.219 18.6673 20.6667V4C18.6673 3.44772 18.2196 3 17.6673 3Z" fill="#1361A0"/>
</svg>
