<svg width="25" height="24" viewBox="0 0 25 24" fill="none" xmlns="http://www.w3.org/2000/svg">
<path d="M1.34138 12.8469L12.1153 23.6473C12.5821 24.1153 13.3453 24.1165 13.8122 23.6497L24.6377 12.8493C24.7494 12.7378 24.8381 12.6054 24.8986 12.4596C24.9591 12.3138 24.9902 12.1575 24.9902 11.9997C24.9902 11.8418 24.9591 11.6855 24.8986 11.5397C24.8381 11.3939 24.7494 11.2615 24.6377 11.15L13.8122 0.349678C13.7007 0.238297 13.5683 0.149996 13.4226 0.0898265C13.2769 0.0296575 13.1208 -0.00119828 12.9632 -0.000975363C12.8056 -0.000752442 12.6496 0.0305449 12.5041 0.0911258C12.3586 0.151707 12.2265 0.240382 12.1153 0.352078L1.34138 11.1524C1.23006 11.2637 1.14175 11.3957 1.0815 11.5411C1.02125 11.6865 0.990234 11.8423 0.990234 11.9997C0.990234 12.157 1.02125 12.3129 1.0815 12.4582C1.14175 12.6036 1.23006 12.7357 1.34138 12.8469ZM9.39002 9.59959H15.3902V7.19951L18.9903 10.7996L15.3902 14.3998V11.9997H11.7901V16.7998H9.39002V9.59959Z" fill="#1A91FF"/>
</svg>
