<svg width="19" height="18" viewBox="0 0 19 18" fill="none" xmlns="http://www.w3.org/2000/svg">
<path d="M2.02214 6.77996L2.77214 6.33996V7.99996H15.7721V6.35496L16.5121 6.77996C16.6264 6.83974 16.7594 6.85305 16.8832 6.81712C17.0071 6.78119 17.1123 6.69879 17.1768 6.58714C17.2413 6.47549 17.2602 6.34322 17.2296 6.21796C17.1989 6.09271 17.121 5.98415 17.0121 5.91496L9.27215 1.45996L1.52214 5.91496C1.46239 5.94622 1.40958 5.98924 1.36688 6.04144C1.32419 6.09364 1.29249 6.15393 1.27371 6.21869C1.25492 6.28346 1.24942 6.35135 1.25755 6.41829C1.26569 6.48524 1.28727 6.54984 1.32102 6.60823C1.35477 6.66661 1.39998 6.71756 1.45393 6.75802C1.50788 6.79848 1.56945 6.8276 1.63495 6.84365C1.70045 6.85969 1.76852 6.86232 1.83506 6.85137C1.9016 6.84043 1.96524 6.81614 2.02214 6.77996ZM9.19714 3.55496C9.25795 3.51985 9.32693 3.50137 9.39715 3.50137C9.46736 3.50137 9.53634 3.51985 9.59715 3.55496L12.9571 5.49996H11.3471L9.39715 4.37996L7.44714 5.49996H5.84214L9.19714 3.55496Z" fill="white"/>
<path d="M16.6965 13.4995H16.2715V13.0745C16.2715 12.922 16.2109 12.7757 16.1031 12.6679C15.9952 12.56 15.849 12.4995 15.6965 12.4995H14.2715V8.81445H12.2715V12.4995H10.2715V8.81445H8.27148V12.4995H6.27148V8.81445H4.27148V12.4995H2.84648C2.69398 12.4995 2.54773 12.56 2.4399 12.6679C2.33206 12.7757 2.27148 12.922 2.27148 13.0745V13.4995H1.84648C1.69398 13.4995 1.54773 13.56 1.4399 13.6679C1.33206 13.7757 1.27148 13.922 1.27148 14.0745V15.4995H17.2715V14.0745C17.2715 13.922 17.2109 13.7757 17.1031 13.6679C16.9952 13.56 16.849 13.4995 16.6965 13.4995Z" fill="white"/>
</svg>
