<?xml version="1.0"?>
<svg xmlns="http://www.w3.org/2000/svg" width="45" height="45" viewBox="0 0 45 45" fill="none">
<path d="M23.0548 43.5073C8.55391 43.5073 4.6795 28.3911 6.43082 18.4868C6.50705 18.0558 7.07209 17.9316 7.3183 18.2936C8.08074 19.4142 8.75921 21.0328 9.88336 20.8923C11.573 20.6811 12.7435 5.77196 22.7574 1.57692C23.0752 1.44381 23.4077 1.69638 23.3728 2.03909C22.8776 6.8974 25.7946 13.8528 30.9625 13.8528C33.9249 13.8528 35.9518 11.4884 36.9647 9.11399C37.2723 8.39271 38.3262 8.48363 38.5026 9.2477C40.31 17.0751 45.1413 43.5073 23.0548 43.5073Z" fill="#FF8F1F"/>
<path d="M17.9734 28.9289C18.3144 28.6424 18.8321 28.839 18.9095 29.2776C19.0907 30.304 19.6864 32.0678 21.6404 32.0678C23.991 32.0678 25.5862 25.5998 26.0045 23.6976C26.0733 23.3846 26.3783 23.1721 26.6924 23.2359C32.5666 24.4303 35.4227 43.505 22.5069 43.505C13.1043 43.505 15.2345 31.2298 17.9734 28.9289ZM34.0249 8.27182C34.2319 6.65259 31.276 11.0814 31.276 11.0814C31.276 11.0814 33.5295 12.1458 34.0249 8.27182ZM4.24118 32.4204C4.30349 31.7311 3.4167 29.8855 3.25969 30.6163C2.88389 32.3646 4.17888 33.1098 4.24118 32.4204Z" fill="#FFB636"/>
<path d="M27.8922 30.4578C27.6719 29.5391 26.882 31.6729 26.9812 32.5421C27.0805 33.4112 28.4191 32.6557 27.8922 30.4578Z" fill="#FFD469"/>
</svg>
