<svg width="16" height="16" viewBox="0 0 16 16" fill="none" xmlns="http://www.w3.org/2000/svg">
<path d="M8.00078 11.1998C9.76809 11.1998 11.2008 9.76712 11.2008 7.9998C11.2008 6.23249 9.76809 4.7998 8.00078 4.7998C6.23347 4.7998 4.80078 6.23249 4.80078 7.9998C4.80078 9.76712 6.23347 11.1998 8.00078 11.1998Z" fill="#3F97E8"/>
<path d="M8.8 1.6552V0H7.2V1.6552C5.79224 1.83495 4.48397 2.47694 3.48046 3.48046C2.47694 4.48397 1.83495 5.79224 1.6552 7.2H0V8.8H1.6552C1.83468 10.2079 2.47659 11.5163 3.48016 12.5198C4.48373 13.5234 5.79214 14.1653 7.2 14.3448V16H8.8V14.3448C10.2079 14.1654 11.5164 13.5236 12.52 12.52C13.5236 11.5164 14.1654 10.2079 14.3448 8.8H16V7.2H14.3448C14.1653 5.79214 13.5234 4.48373 12.5198 3.48016C11.5163 2.47659 10.2079 1.83468 8.8 1.6552ZM8 12.8C5.3528 12.8 3.2 10.6472 3.2 8C3.2 5.3528 5.3528 3.2 8 3.2C10.6472 3.2 12.8 5.3528 12.8 8C12.8 10.6472 10.6472 12.8 8 12.8Z" fill="#1361A0"/>
</svg>
