<svg width="19" height="17" viewBox="0 0 19 17" fill="none" xmlns="http://www.w3.org/2000/svg">
<path fill-rule="evenodd" clip-rule="evenodd" d="M7.34279 4.3373C6.28658 4.51987 5.51709 5.41472 5.39109 6.47928L4.45703 14.4108H14.7426L13.8067 6.46835C13.6819 5.40893 12.9195 4.51602 11.8691 4.33216C10.2941 4.05638 8.98141 4.05381 7.34279 4.3373ZM8.14057 7.11313C8.15744 6.94612 8.10832 6.77914 8.0037 6.64786C7.89908 6.51659 7.74727 6.43145 7.58071 6.41063C7.41414 6.38981 7.24604 6.43496 7.11233 6.53644C6.97862 6.63792 6.88991 6.78768 6.86515 6.9537L6.28337 11.6067C6.27073 11.6914 6.27517 11.7779 6.29642 11.8609C6.31767 11.9439 6.35531 12.0218 6.40712 12.0901C6.45893 12.1584 6.52387 12.2156 6.59812 12.2584C6.67236 12.3012 6.75442 12.3287 6.83946 12.3394C6.92449 12.35 7.0108 12.3435 7.0933 12.3203C7.1758 12.2971 7.25282 12.2576 7.31984 12.2042C7.38686 12.1508 7.44253 12.0845 7.48356 12.0093C7.5246 11.934 7.55017 11.8514 7.55879 11.7661L8.14057 7.11313Z" fill="white"/>
<path fill-rule="evenodd" clip-rule="evenodd" d="M8.61885 5.46036C8.9031 5.66218 9.12733 5.93727 9.2677 6.25637C9.40806 6.57547 9.45931 6.92665 9.41598 7.27256L8.83484 11.9255C8.77442 12.4076 8.5417 12.8255 8.20485 13.1251H13.2962L12.53 6.61878C12.4644 6.0595 12.0774 5.67379 11.648 5.59858C10.5738 5.41086 9.64869 5.36265 8.61885 5.46036ZM13.8067 6.46835C13.6819 5.40893 12.9195 4.51602 11.8691 4.33216C10.2941 4.05638 8.98141 4.05381 7.34279 4.3373C6.28658 4.51987 5.51709 5.41472 5.39109 6.47928L4.45703 14.4108H14.7426L13.8067 6.46835ZM8.14057 7.11313L7.55879 11.7661C7.55017 11.8514 7.5246 11.934 7.48356 12.0093C7.44253 12.0845 7.38686 12.1508 7.31984 12.2042C7.25282 12.2576 7.1758 12.2971 7.0933 12.3203C7.0108 12.3435 6.92449 12.35 6.83946 12.3394C6.75442 12.3287 6.67236 12.3012 6.59812 12.2584C6.52387 12.2156 6.45893 12.1584 6.40712 12.0901C6.35531 12.0218 6.31767 11.9439 6.29642 11.8609C6.27517 11.7779 6.27073 11.6914 6.28337 11.6067L6.86515 6.9537C6.87376 6.86844 6.89934 6.78575 6.94038 6.71052C6.98141 6.63528 7.03707 6.56901 7.1041 6.51559C7.17112 6.46218 7.24814 6.42271 7.33064 6.3995C7.41314 6.37629 7.49944 6.36981 7.58448 6.38044C7.66952 6.39107 7.75157 6.41859 7.82582 6.4614C7.90007 6.5042 7.965 6.56142 8.01681 6.62968C8.06863 6.69795 8.10626 6.77588 8.12752 6.85891C8.14877 6.94193 8.1532 7.02837 8.14057 7.11313Z" fill="white"/>
<path fill-rule="evenodd" clip-rule="evenodd" d="M15.3858 16.982H3.81445V15.6963H15.3858V16.982Z" fill="white"/>
<path d="M2.52816 9.26785C2.52816 9.48449 2.5378 9.69856 2.55709 9.9107H0.599609V8.625H2.55709C2.5378 8.83714 2.52816 9.05121 2.52816 9.26785Z" fill="white"/>
<path d="M3.82178 5.18936C3.57385 5.54014 3.35846 5.91283 3.17829 6.30277L1.48438 5.32435L2.12723 4.21094L3.82178 5.18936Z" fill="white"/>
<path d="M6.63416 2.84561C6.24266 3.02754 5.87045 3.24354 5.52203 3.48975L4.54297 1.79519L5.65638 1.15234L6.63416 2.84625V2.84561Z" fill="white"/>
<path d="M9.59988 2.19613C9.38324 2.19613 9.16917 2.20577 8.95703 2.22506V0.267578H10.2427V2.22506C10.029 2.20581 9.81449 2.19616 9.59988 2.19613Z" fill="white"/>
<path d="M13.6779 3.48975C13.3271 3.24184 12.9544 3.02645 12.5645 2.84625L13.5429 1.15234L14.6563 1.79519L13.6779 3.48975Z" fill="white"/>
<path d="M16.0211 6.30213C15.8406 5.9126 15.625 5.54035 15.377 5.19L17.0715 4.21094L17.7144 5.32435L16.0204 6.30213H16.0211Z" fill="white"/>
<path d="M16.6715 9.26785C16.6715 9.05121 16.6619 8.83714 16.6426 8.625H18.6001V9.9107H16.6426C16.6619 9.69856 16.6715 9.48449 16.6715 9.26785Z" fill="white"/>
</svg>
