<svg width="50" height="30" viewBox="0 0 50 30" fill="none" xmlns="http://www.w3.org/2000/svg">
<path fill-rule="evenodd" clip-rule="evenodd" d="M2.23214 0.7146C0.892857 0.7146 0 1.60745 0 3.39317V29.286H4.46429V23.036C4.46429 23.036 41.5382 23.1036 45.5357 23.036V29.286H50V20.8038V6.96459C50 5.78694 49.5071 4.28602 47.7679 4.28602C46.0286 4.28602 45.5357 5.78694 45.5357 6.96459V18.5717H4.46429V3.39317C4.46429 1.60745 3.57143 0.7146 2.23214 0.7146ZM12.5097 4.28501C9.55102 4.28501 7.15254 6.68349 7.15254 9.64216C7.15254 12.6008 9.55102 14.9993 12.5097 14.9993C15.4684 14.9993 17.8668 12.6008 17.8668 9.64216C17.8668 6.68349 15.4684 4.28501 12.5097 4.28501ZM19.6525 14.9999V7.85708H35.7239C39.1661 7.85708 42.8667 11.4285 42.8667 14.9999H19.6525Z" fill="white"/>
</svg>
