<svg width="25" height="25" viewBox="0 0 25 25" fill="none" xmlns="http://www.w3.org/2000/svg">
<path d="M12.5 1.5625C6.45996 1.5625 1.5625 6.45996 1.5625 12.5C1.5625 18.54 6.45996 23.4375 12.5 23.4375C18.54 23.4375 23.4375 18.54 23.4375 12.5C23.4375 6.45996 18.54 1.5625 12.5 1.5625ZM12.5 21.582C7.48535 21.582 3.41797 17.5146 3.41797 12.5C3.41797 7.48535 7.48535 3.41797 12.5 3.41797C17.5146 3.41797 21.582 7.48535 21.582 12.5C21.582 17.5146 17.5146 21.582 12.5 21.582Z" fill="#18A0FB"/>
<path d="M12.5 3.41797C7.48535 3.41797 3.41797 7.48535 3.41797 12.5C3.41797 17.5146 7.48535 21.582 12.5 21.582C17.5146 21.582 21.582 17.5146 21.582 12.5C21.582 7.48535 17.5146 3.41797 12.5 3.41797ZM13.2812 17.7734C13.2812 17.8809 13.1934 17.9688 13.0859 17.9688H11.9141C11.8066 17.9688 11.7188 17.8809 11.7188 17.7734V11.1328C11.7188 11.0254 11.8066 10.9375 11.9141 10.9375H13.0859C13.1934 10.9375 13.2812 11.0254 13.2812 11.1328V17.7734ZM12.5 9.375C12.1933 9.36874 11.9014 9.24252 11.6867 9.02344C11.472 8.80435 11.3518 8.50985 11.3518 8.20312C11.3518 7.8964 11.472 7.6019 11.6867 7.38281C11.9014 7.16373 12.1933 7.03751 12.5 7.03125C12.8067 7.03751 13.0986 7.16373 13.3133 7.38281C13.528 7.6019 13.6482 7.8964 13.6482 8.20312C13.6482 8.50985 13.528 8.80435 13.3133 9.02344C13.0986 9.24252 12.8067 9.36874 12.5 9.375Z" fill="#18A0FB" fill-opacity="0.15"/>
<path d="M11.3281 8.20312C11.3281 8.51393 11.4516 8.812 11.6714 9.03177C11.8911 9.25154 12.1892 9.375 12.5 9.375C12.8108 9.375 13.1089 9.25154 13.3286 9.03177C13.5484 8.812 13.6719 8.51393 13.6719 8.20312C13.6719 7.89232 13.5484 7.59425 13.3286 7.37448C13.1089 7.15471 12.8108 7.03125 12.5 7.03125C12.1892 7.03125 11.8911 7.15471 11.6714 7.37448C11.4516 7.59425 11.3281 7.89232 11.3281 8.20312ZM13.0859 10.9375H11.9141C11.8066 10.9375 11.7188 11.0254 11.7188 11.1328V17.7734C11.7188 17.8809 11.8066 17.9688 11.9141 17.9688H13.0859C13.1934 17.9688 13.2812 17.8809 13.2812 17.7734V11.1328C13.2812 11.0254 13.1934 10.9375 13.0859 10.9375Z" fill="#18A0FB"/>
</svg>
