<svg width="108" height="155" viewBox="0 0 108 155" fill="none" xmlns="http://www.w3.org/2000/svg">
<path fill-rule="evenodd" clip-rule="evenodd" d="M62.3671 147.604C72.2751 137.213 89.4335 113.211 98.2727 95.4218C107.141 77.6323 107.718 66.055 106.852 54.9859C105.985 43.9169 103.674 33.3844 96.3662 24.0096C89.058 14.6348 76.7236 6.44595 63.667 2.83158C50.6104 -0.782804 36.8605 0.149028 26.0282 4.94938C15.1959 9.74972 7.30995 18.4186 3.43919 29.657C-0.402676 40.8955 -0.229362 54.7318 4.53687 70.4035C9.30309 86.0752 18.6333 103.582 26.4904 117.419C34.3475 131.255 40.7024 141.42 45.2087 148.113C49.7438 154.805 52.4302 157.996 62.3671 147.604ZM55.8677 78.9312C60.6339 77.237 65.1691 74.1308 67.5955 69.3305C70.0219 64.5019 70.3108 57.9508 68.0866 52.5858C65.8912 47.2207 61.1828 43.0415 55.8099 41.0932C50.4371 39.1448 44.3999 39.5119 39.5759 42.3638C18.4889 54.76 32.2388 87.4024 55.8677 78.9312Z" fill="#3EA4F7"/>
</svg>
