<svg width="16" height="17" viewBox="0 0 16 17" fill="none" xmlns="http://www.w3.org/2000/svg">
<path d="M8 0.5C3.58172 0.5 0 4.08172 0 8.5C0 12.9183 3.58172 16.5 8 16.5C12.4183 16.5 16 12.9183 16 8.5C16 4.08172 12.4183 0.5 8 0.5ZM7.93555 2.54785C8.38355 2.54785 8.81296 2.59292 9.22363 2.6836C9.63431 2.77419 10.0271 2.90543 10.4004 3.07617C10.3471 3.06551 10.2777 3.04965 10.1924 3.02832C9.76489 2.94353 9.3702 2.90627 8.97557 3.17188C8.73277 3.32323 8.46644 3.43976 8.16015 3.42773C7.79748 3.42773 7.43244 3.36681 7.06444 3.24413C6.69644 3.12145 6.36805 2.98525 6.08007 2.83593C6.66673 2.64393 7.28487 2.54785 7.93555 2.54785ZM4.47559 3.76856C4.57725 3.76897 4.67424 3.78039 4.76757 3.80372C4.91691 3.84105 5.01893 3.91881 5.07227 4.03615C5.14695 4.18547 5.25047 4.32416 5.38379 4.45216C5.51712 4.58016 5.65828 4.69209 5.80761 4.78809C5.89293 4.80943 5.96229 4.83024 6.01563 4.85157C6.17407 4.90732 6.25931 5.05685 6.43164 5.05959C6.55964 5.01692 6.66165 5.0496 6.73633 5.15627C6.972 5.27447 7.18079 5.43852 7.32813 5.66799C7.18364 5.90848 7.01833 6.17171 6.75196 6.30764C6.76264 6.30764 6.76759 6.31111 6.76759 6.31643C6.76759 6.32175 6.77352 6.32424 6.78419 6.32424C6.82691 6.39892 6.80512 6.45735 6.71973 6.50003C6.6664 6.52136 6.61636 6.53721 6.56836 6.54788C6.52036 6.55855 6.46935 6.56943 6.41601 6.58011C6.27735 6.60144 6.18623 6.62817 6.14355 6.66019C6.14355 6.68152 6.12771 6.69241 6.09569 6.69241C6.09569 6.70308 6.06151 6.73725 5.99217 6.79593C5.92284 6.85461 5.86688 6.97496 5.8242 7.15628C5.81352 7.19895 5.79175 7.24155 5.75975 7.28421C5.79175 7.58288 5.80016 7.81517 5.78416 7.98051C5.76816 8.14584 5.70129 8.2444 5.58396 8.2764C5.53067 8.28707 5.46133 8.27617 5.37595 8.24417C5.30127 8.22284 5.20767 8.18273 5.09567 8.12405C4.98367 8.06537 4.8534 7.97177 4.70407 7.84377C4.72592 8.03748 4.783 8.23691 4.84763 8.43557C4.98484 8.40863 5.22108 8.42423 5.12009 8.62796C5.0478 8.70119 5.06756 8.75089 5.16795 8.78812C5.21053 8.79879 5.25312 8.83643 5.29588 8.90043C5.46141 8.91505 5.63144 8.91884 5.81639 8.88383C5.97107 8.86249 6.13551 8.85752 6.31151 8.8682C6.48751 8.87887 6.66133 8.919 6.83201 8.98832C7.31847 9.19168 7.7132 9.8328 8.24803 10.0684C8.38129 10.1537 8.49076 10.2389 8.57615 10.3243C8.66147 10.4096 8.70408 10.5057 8.70408 10.6123C8.7032 10.9823 8.67063 11.3589 8.57615 11.7325C8.54415 11.8285 8.44557 11.9612 8.28025 12.1319C8.11496 12.3025 7.92525 12.463 7.71189 12.6123C7.62707 12.6758 7.55176 12.7511 7.48827 12.836C7.43493 12.9106 7.38392 13.0067 7.33592 13.124C7.28792 13.2414 7.26365 13.3801 7.26365 13.5401C7.17833 13.7001 7.10651 13.8471 7.04783 13.9805C6.98915 14.1138 6.93913 14.2223 6.89645 14.3076C6.85379 14.425 6.81021 14.5211 6.76755 14.5957C6.34296 14.571 5.94647 14.412 5.55172 14.1797C5.5978 13.4213 5.74884 12.6696 5.82419 11.9238C5.84552 11.8492 5.83959 11.7798 5.80759 11.7158C5.46456 11.0341 5.06216 10.6934 5.15231 9.74805C5.17364 9.64139 5.18356 9.56115 5.18356 9.50781C5.04253 9.36885 4.84599 9.26087 4.70407 9.0918C3.73469 8.63744 2.72497 8.60267 2.01559 7.58789C2.13292 6.80924 2.39196 6.095 2.79196 5.44433C3.19196 4.79367 3.69072 4.23895 4.28805 3.78027C4.35209 3.77227 4.41459 3.76831 4.47559 3.76856ZM11.792 3.94043C12.4533 4.49509 12.9763 5.16673 13.3603 5.95605C13.7443 6.74537 13.9355 7.60917 13.9355 8.54785V8.66016L13.4238 8.82032C13.2073 8.76067 12.9766 8.91752 12.8799 9.12403L13.1523 9.21973C13.195 9.24107 13.2217 9.26285 13.2324 9.28419C13.2917 9.43603 13.2291 9.62052 13.1836 9.78028C13.098 9.89312 12.9576 9.99907 12.8477 10.1162C12.837 10.1695 12.832 10.2498 12.832 10.3565C12.832 10.5271 12.7627 10.7351 12.624 10.9805C12.6454 11.0552 12.6454 11.1245 12.624 11.1885C12.5922 11.3269 12.544 11.4609 12.4805 11.5879C12.406 11.7159 12.3624 11.8338 12.3516 11.9404C12.3089 12.2285 12.1811 12.4949 11.9678 12.7402C11.6798 13.0389 11.4292 13.1717 11.2158 13.1397C11.1198 13.1183 11.048 13.0574 11 12.9561C10.8424 12.6222 10.7442 12.2728 10.5762 11.9082C10.4625 11.6054 10.5451 11.2565 10.5684 10.9316C10.577 10.6908 10.4169 10.4717 10.3682 10.2363C10.3575 10.1563 10.3783 10.0469 10.4316 9.90821C10.4211 9.89753 10.3711 9.87824 10.2803 9.85157C9.79617 9.71593 9.44429 9.97501 9.03221 9.60352C8.86689 9.4542 8.75743 9.24121 8.70409 8.96387C8.64009 8.57987 8.71439 8.23315 8.92772 7.92383C8.9384 7.89183 8.94432 7.86013 8.94432 7.82812C8.94432 7.75344 8.94928 7.69997 8.95995 7.66796C9.013 7.65728 9.05807 7.63551 9.09569 7.60351C9.13275 7.57151 9.16197 7.53981 9.18359 7.5078C9.21559 7.46517 9.23736 7.42257 9.24804 7.37987C10.3869 7.276 10.6302 7.06353 11.6484 7.66795L12.1123 7.34764C12.0056 7.16631 11.912 7.03355 11.832 6.94823C11.5619 6.66455 11.2209 6.61571 10.9443 6.94823L9.8242 6.85155C9.67756 6.9954 9.42156 6.99984 9.2158 7.01171C9.2158 6.91571 9.18905 6.81963 9.13572 6.72363C9.07172 6.59561 9.04001 6.49459 9.04001 6.41992C9.04001 6.34531 9.05585 6.28687 9.08787 6.24413C9.42713 5.79707 9.36003 5.76571 9.49607 5.17187C9.54407 5.0332 9.63175 4.86281 9.75973 4.66015C10.0588 4.23588 11.1973 4.00244 11.792 3.94043Z" fill="#1361A0"/>
</svg>
