<svg width="18" height="18" viewBox="0 0 18 18" fill="none" xmlns="http://www.w3.org/2000/svg">
<path d="M6.33203 2.77734V16.9996" stroke="#3F97E8" stroke-width="2" stroke-linejoin="round"/>
<path d="M11.668 1V15.2222" stroke="#3F97E8" stroke-width="2" stroke-linejoin="round"/>
<path d="M5.77156 2.59148L3.33956 1.77992C3.0723 1.69091 2.78771 1.66668 2.50925 1.70922C2.23079 1.75177 1.96643 1.85988 1.73795 2.02465C1.50946 2.18941 1.32341 2.40611 1.19511 2.65689C1.0668 2.90766 0.999932 3.18534 1 3.46703V13.9408C0.99991 14.3141 1.11731 14.6779 1.33557 14.9807C1.55382 15.2835 1.86186 15.51 2.216 15.6279L5.77156 16.8128C6.13623 16.9343 6.53044 16.9343 6.89511 16.8128L11.1049 15.4101C11.4696 15.2887 11.8638 15.2887 12.2284 15.4101L14.6604 16.2208C14.9278 16.3098 15.2124 16.3341 15.491 16.2915C15.7695 16.2489 16.0339 16.1407 16.2624 15.9758C16.4909 15.811 16.677 15.5941 16.8052 15.3433C16.9334 15.0924 17.0002 14.8146 17 14.5328V4.05992C17.0002 3.68676 16.8829 3.32301 16.6648 3.02021C16.4467 2.71741 16.1389 2.49092 15.7849 2.37281L12.2293 1.18792C11.8644 1.06627 11.4698 1.06627 11.1049 1.18792L6.89422 2.59059C6.52955 2.71205 6.13534 2.71205 5.77067 2.59059L5.77156 2.59148Z" stroke="#1361A0" stroke-width="2" stroke-linecap="round" stroke-linejoin="round"/>
</svg>
