<svg width="279" height="39" viewBox="0 0 279 39" fill="none" xmlns="http://www.w3.org/2000/svg">
<g clip-path="url(#clip0_251_8923)">
<path d="M235.16 27.701H225.229C224.092 27.6991 223.002 27.2401 222.199 26.425C221.396 25.6099 220.945 24.5053 220.945 23.3539V15.6465C220.945 15.0177 221.079 14.3962 221.339 13.8252C221.599 13.2542 221.979 12.7474 222.452 12.3398C223.227 11.668 224.214 11.2997 225.234 11.3018H235.165L235.16 27.701Z" fill="#3682C2"/>
<path d="M258.311 36.2663H238.474C237.003 36.2663 235.592 35.6746 234.551 34.6212C233.511 33.5679 232.926 32.1393 232.926 30.6496V8.35106C232.926 6.86142 233.511 5.4328 234.551 4.37946C235.592 3.32613 237.003 2.73438 238.474 2.73438H258.311V36.2663Z" fill="#2976B5"/>
<path d="M258.309 1.48153V37.5185C258.309 38.3367 258.964 39 259.772 39H261.214C262.022 39 262.677 38.3367 262.677 37.5185V1.48153C262.677 0.6633 262.022 3.8147e-06 261.214 3.8147e-06H259.772C258.964 3.8147e-06 258.309 0.6633 258.309 1.48153Z" fill="#3682C2"/>
<path d="M262.677 14.4671V8.75293H276.177C276.926 8.75293 277.644 9.05407 278.173 9.5901C278.703 10.1261 279 10.8532 279 11.6112C278.999 12.3689 278.702 13.0953 278.172 13.6308C277.643 14.1663 276.925 14.4671 276.177 14.4671H262.677Z" fill="#1262A1"/>
<path d="M278.998 26.8286V27.9349C278.998 28.2373 278.939 28.5367 278.824 28.8161C278.71 29.0955 278.543 29.3493 278.331 29.5631C278.12 29.777 277.869 29.9466 277.594 30.0623C277.318 30.178 277.022 30.2376 276.723 30.2376H262.677V24.5234H276.723C277.022 24.5234 277.318 24.5831 277.594 24.6989C277.87 24.8148 278.121 24.9847 278.332 25.1987C278.544 25.4128 278.711 25.667 278.825 25.9466C278.939 26.2263 278.998 26.526 278.998 26.8286Z" fill="#1262A1"/>
<path d="M258.311 36.2663H238.474C237.003 36.2663 235.592 35.6746 234.551 34.6212C233.511 33.5679 232.926 32.1393 232.926 30.6496V8.35106C232.926 6.86142 233.511 5.4328 234.551 4.37946C235.592 3.32613 237.003 2.73438 238.474 2.73438C240.125 26.8142 258.311 29.0243 258.311 29.0243V36.2663Z" fill="#3EA4F6"/>
<path d="M258.311 36.2663V2.73438H256.711V36.2663H258.311Z" fill="#1262A1"/>
<path d="M249.926 36.2664H238.474C237.003 36.2664 235.592 35.6746 234.551 34.6213C233.511 33.568 232.926 32.1393 232.926 30.6497V14.9961C232.926 30.8032 249.926 36.2664 249.926 36.2664Z" fill="#1262A1"/>
<path d="M232.926 27.701V11.3018H231.889V27.701H232.926Z" fill="#1262A1"/>
<path d="M264.653 14.4671V8.75293H262.677V14.4671H264.653Z" fill="#2976B5"/>
<path d="M264.653 30.2473V24.5332H262.677V30.2473H264.653Z" fill="#2976B5"/>
<path d="M232.926 27.701H225.225C224.088 27.6978 222.999 27.2383 222.197 26.4233C221.395 25.6084 220.945 24.5045 220.945 23.3539V15.6465C220.945 15.0177 221.079 14.3962 221.339 13.8252C221.599 13.2542 221.979 12.7474 222.452 12.3398C221.008 24.353 232.931 26.1878 232.931 26.1878L232.926 27.701Z" fill="#1262A1"/>
<path d="M99.6949 21.6407L103.098 22.8981V22.903H0V16.0996H103.098L99.7238 17.3472L102.617 18.4145L99.8249 19.4452L102.73 20.5198L99.6949 21.6407Z" fill="#1262A1"/>
<path d="M165.348 16.0996H157.29V16.1045L160.693 17.3618L157.658 18.4803L160.563 19.5549L157.771 20.5881L160.664 21.6554L157.29 22.903H165.348H220.938V16.0996H165.348Z" fill="#1262A1"/>
<path d="M107.226 5.17521H109.029C109.091 5.17257 109.153 5.1828 109.212 5.20528C109.27 5.22776 109.324 5.26203 109.369 5.306C109.414 5.34997 109.449 5.40273 109.474 5.46109C109.498 5.51944 109.51 5.58218 109.51 5.6455C109.51 5.70893 109.498 5.77178 109.474 5.83026C109.449 5.88874 109.414 5.94166 109.369 5.98582C109.324 6.02998 109.271 6.06448 109.212 6.08723C109.154 6.10999 109.091 6.12053 109.029 6.11823H107.219C107.126 6.11806 107.036 6.09024 106.96 6.03829C106.883 5.98633 106.823 5.91256 106.788 5.82629C106.753 5.74002 106.744 5.6451 106.762 5.55352C106.779 5.46193 106.824 5.37778 106.889 5.31167C106.933 5.26708 106.986 5.232 107.044 5.20855C107.102 5.1851 107.164 5.17376 107.226 5.17521Z" fill="#2976B5"/>
<path d="M113.987 5.63829C113.988 5.7013 113.977 5.764 113.955 5.82275C113.932 5.88149 113.898 5.9351 113.855 5.98046C113.812 6.02581 113.76 6.06201 113.703 6.08693C113.646 6.11186 113.584 6.12502 113.522 6.12564H111.71C111.649 6.12564 111.588 6.1134 111.531 6.08961C111.475 6.06582 111.424 6.03096 111.38 5.98704C111.337 5.94311 111.303 5.89097 111.28 5.83363C111.257 5.77629 111.245 5.71488 111.245 5.65291C111.245 5.59106 111.257 5.52976 111.28 5.47256C111.303 5.41536 111.337 5.36338 111.381 5.31965C111.424 5.27591 111.475 5.24128 111.532 5.21776C111.588 5.19424 111.649 5.1823 111.71 5.18262H113.51C113.632 5.18359 113.748 5.23112 113.837 5.31565C113.925 5.40018 113.979 5.51545 113.987 5.63829Z" fill="#2976B5"/>
<path d="M110.838 2.45858V4.29101C110.839 4.35297 110.827 4.41439 110.804 4.47173C110.781 4.52907 110.746 4.5812 110.703 4.62513C110.66 4.66906 110.609 4.70392 110.552 4.7277C110.496 4.75149 110.435 4.76373 110.374 4.76373C110.25 4.76373 110.131 4.71393 110.044 4.62527C109.956 4.53662 109.907 4.41638 109.907 4.29101V2.45858C109.907 2.39661 109.919 2.33526 109.943 2.27804C109.966 2.22082 110.001 2.16887 110.044 2.12517C110.087 2.08147 110.139 2.04688 110.195 2.02338C110.252 1.99989 110.313 1.98797 110.374 1.98829C110.435 1.988 110.495 1.99992 110.551 2.02334C110.607 2.04676 110.658 2.08123 110.701 2.12475C110.789 2.21322 110.838 2.33329 110.838 2.45858Z" fill="#2976B5"/>
<path d="M110.374 6.52832C110.435 6.52832 110.496 6.54056 110.552 6.56435C110.609 6.58814 110.66 6.623 110.703 6.66693C110.746 6.71085 110.781 6.76299 110.804 6.82033C110.827 6.87767 110.839 6.93908 110.838 7.00105V8.83348C110.83 8.95267 110.777 9.0642 110.691 9.14561C110.604 9.22702 110.491 9.27228 110.373 9.27228C110.255 9.27228 110.141 9.22702 110.055 9.14561C109.968 9.0642 109.916 8.95267 109.907 8.83348V7.00105C109.907 6.87567 109.956 6.75543 110.044 6.66678C110.131 6.57813 110.25 6.52832 110.374 6.52832Z" fill="#2976B5"/>
<path d="M149.222 30.3564H151.061C151.189 30.3564 151.311 30.4078 151.402 30.4992C151.492 30.5906 151.542 30.7145 151.542 30.8438C151.542 30.973 151.492 31.097 151.402 31.1884C151.311 31.2798 151.189 31.3311 151.061 31.3311H149.222C149.112 31.31 149.013 31.2506 148.941 31.1632C148.87 31.0758 148.831 30.9658 148.831 30.8523C148.831 30.7388 148.87 30.6289 148.941 30.5415C149.013 30.454 149.112 30.3946 149.222 30.3735V30.3564Z" fill="#2976B5"/>
<path d="M156.084 30.8273C156.086 30.8918 156.074 30.9559 156.051 31.0158C156.027 31.0757 155.992 31.1301 155.947 31.1757C155.902 31.2213 155.848 31.2571 155.789 31.281C155.73 31.3049 155.666 31.3164 155.603 31.3147H153.764C153.636 31.3147 153.514 31.2634 153.424 31.172C153.333 31.0806 153.283 30.9566 153.283 30.8273C153.283 30.6981 153.333 30.5741 153.424 30.4827C153.514 30.3913 153.636 30.34 153.764 30.34H155.591C155.655 30.3384 155.719 30.3498 155.779 30.3735C155.838 30.3973 155.893 30.4329 155.939 30.4784C155.985 30.5238 156.021 30.5781 156.046 30.638C156.071 30.6979 156.084 30.7623 156.084 30.8273Z" fill="#2976B5"/>
<path d="M152.888 27.6006V29.4598C152.888 29.5891 152.837 29.713 152.747 29.8044C152.657 29.8958 152.534 29.9472 152.407 29.9472C152.279 29.9472 152.156 29.8958 152.066 29.8044C151.976 29.713 151.925 29.5891 151.925 29.4598V27.6006C151.912 27.5301 151.914 27.4576 151.932 27.3882C151.95 27.3188 151.982 27.2542 152.027 27.1989C152.073 27.1437 152.129 27.0993 152.193 27.0688C152.257 27.0383 152.327 27.0225 152.398 27.0225C152.469 27.0225 152.539 27.0383 152.603 27.0688C152.667 27.0993 152.724 27.1437 152.769 27.1989C152.814 27.2542 152.847 27.3188 152.864 27.3882C152.882 27.4576 152.884 27.5301 152.871 27.6006H152.888Z" fill="#2976B5"/>
<path d="M152.416 31.7334C152.544 31.7334 152.666 31.7847 152.757 31.8761C152.847 31.9675 152.898 32.0915 152.898 32.2207V34.0824C152.877 34.1939 152.818 34.2946 152.732 34.367C152.645 34.4394 152.537 34.479 152.425 34.479C152.312 34.479 152.204 34.4394 152.118 34.367C152.031 34.2946 151.973 34.1939 151.952 34.0824V32.2207C151.952 32.0944 152 31.973 152.087 31.882C152.173 31.7911 152.291 31.7378 152.416 31.7334Z" fill="#2976B5"/>
<path d="M117.318 15.3146L118.733 16.0993L117.318 16.8815L116.545 18.3143L115.77 16.8815L114.355 16.0993L115.77 15.3146L116.545 13.8818L117.318 15.3146Z" fill="#2976B5"/>
<path d="M149.716 7.13495L151.131 7.91714L149.716 8.70177L148.943 10.1346L148.168 8.70177L146.753 7.91714L148.168 7.13495L148.943 5.70215L149.716 7.13495Z" fill="#2976B5"/>
<path d="M136.543 18.3145C136.121 18.3145 135.709 18.4412 135.358 18.6786C135.007 18.9161 134.734 19.2536 134.573 19.6483C134.411 20.0431 134.369 20.4775 134.452 20.8964C134.535 21.3153 134.738 21.7 135.037 22.0017C135.336 22.3035 135.716 22.5087 136.13 22.5915C136.544 22.6742 136.973 22.6308 137.363 22.4666C137.752 22.3025 138.085 22.025 138.319 21.6693C138.552 21.3136 138.677 20.8957 138.676 20.4685C138.674 19.8968 138.449 19.3489 138.049 18.9451C137.65 18.5412 137.108 18.3145 136.543 18.3145ZM136.543 21.6723C136.309 21.6723 136.08 21.6021 135.886 21.4706C135.691 21.339 135.539 21.1521 135.45 20.9333C135.36 20.7145 135.336 20.4737 135.381 20.2413C135.427 20.0089 135.539 19.7952 135.704 19.6274C135.869 19.4595 136.08 19.345 136.309 19.2982C136.539 19.2514 136.777 19.2744 136.993 19.3644C137.21 19.4544 137.395 19.6073 137.525 19.8038C137.656 20.0003 137.726 20.2316 137.727 20.4685C137.728 20.6264 137.698 20.7828 137.639 20.9288C137.579 21.0748 137.492 21.2076 137.382 21.3194C137.272 21.4313 137.141 21.52 136.998 21.5806C136.854 21.6411 136.699 21.6723 136.543 21.6723Z" fill="#2976B5"/>
<path d="M110.838 30.3594C110.417 30.3594 110.004 30.4861 109.654 30.7234C109.303 30.9607 109.029 31.2981 108.868 31.6927C108.707 32.0873 108.665 32.5215 108.747 32.9404C108.83 33.3593 109.033 33.744 109.331 34.0458C109.63 34.3476 110.01 34.5531 110.424 34.6361C110.838 34.7191 111.267 34.676 111.656 34.5122C112.046 34.3485 112.379 34.0714 112.613 33.716C112.847 33.3606 112.971 32.943 112.971 32.5159C112.97 31.9437 112.745 31.3952 112.345 30.9909C111.946 30.5865 111.404 30.3594 110.838 30.3594ZM110.838 33.7148C110.604 33.7148 110.375 33.6444 110.181 33.5127C109.986 33.381 109.834 33.1937 109.744 32.9747C109.655 32.7556 109.631 32.5146 109.677 32.282C109.723 32.0494 109.836 31.8358 110.001 31.6682C110.167 31.5005 110.378 31.3863 110.607 31.34C110.837 31.2938 111.075 31.3175 111.292 31.4083C111.508 31.499 111.693 31.6527 111.823 31.8498C111.953 32.047 112.023 32.2788 112.023 32.5159C112.023 32.8338 111.898 33.1388 111.676 33.3636C111.454 33.5884 111.153 33.7148 110.838 33.7148Z" fill="#2976B5"/>
</g>
<defs>
<clipPath id="clip0_251_8923">
<rect width="279" height="39" fill="white"/>
</clipPath>
</defs>
</svg>
