<svg width="11" height="19" viewBox="0 0 11 19" fill="none" xmlns="http://www.w3.org/2000/svg">
<path d="M4.38889 11.5997V17.0873L5.15347 18.2437C5.3184 18.493 5.68194 18.493 5.84688 18.2437L6.61111 17.0873V11.5997C6.25035 11.667 5.87986 11.7069 5.5 11.7069C5.12014 11.7069 4.74965 11.667 4.38889 11.5997ZM5.5 0.5C2.73854 0.5 0.5 2.75784 0.5 5.5431C0.5 8.32837 2.73854 10.5862 5.5 10.5862C8.26146 10.5862 10.5 8.32837 10.5 5.5431C10.5 2.75784 8.26146 0.5 5.5 0.5ZM5.5 3.16164C4.19792 3.16164 3.13889 4.22979 3.13889 5.5431C3.13889 5.77494 2.95208 5.96336 2.72222 5.96336C2.49236 5.96336 2.30556 5.77494 2.30556 5.5431C2.30556 3.76646 3.73889 2.32112 5.5 2.32112C5.72986 2.32112 5.91667 2.50954 5.91667 2.74138C5.91667 2.97322 5.72986 3.16164 5.5 3.16164Z" fill="white"/>
</svg>
