<?xml version="1.0"?>
<svg xmlns="http://www.w3.org/2000/svg" width="11" height="13" viewBox="0 0 11 13" fill="none">
<path d="M5.5 0.25C4.18254 0.249934 2.91828 0.769849 1.98203 1.69674C1.04577 2.62364 0.513175 3.8826 0.5 5.2C0.5 8.625 4.90625 12.4375 5.09375 12.6C5.20696 12.6968 5.35103 12.75 5.5 12.75C5.64897 12.75 5.79304 12.6968 5.90625 12.6C6.125 12.4375 10.5 8.625 10.5 5.2C10.4868 3.8826 9.95423 2.62364 9.01797 1.69674C8.08172 0.769849 6.81746 0.249934 5.5 0.25ZM5.5 11.2812C4.45625 10.2875 1.75 7.53125 1.75 5.2C1.75 4.20544 2.14509 3.25161 2.84835 2.54835C3.55161 1.84509 4.50544 1.45 5.5 1.45C6.49456 1.45 7.44839 1.84509 8.15165 2.54835C8.85491 3.25161 9.25 4.20544 9.25 5.2C9.25 7.5125 6.54375 10.2875 5.5 11.2812Z" fill="#1361A0"/>
<path d="M5.5 2.75C5.06735 2.75 4.64442 2.87829 4.28469 3.11866C3.92496 3.35903 3.64458 3.70067 3.47901 4.10038C3.31345 4.50009 3.27013 4.93993 3.35453 5.36426C3.43894 5.78859 3.64728 6.17837 3.95321 6.4843C4.25913 6.79022 4.64891 6.99856 5.07324 7.08297C5.49757 7.16737 5.93741 7.12405 6.33712 6.95849C6.73683 6.79292 7.07848 6.51254 7.31884 6.15281C7.55921 5.79308 7.6875 5.37015 7.6875 4.9375C7.6875 4.35734 7.45703 3.80094 7.0468 3.3907C6.63656 2.98047 6.08016 2.75 5.5 2.75ZM5.5 5.875C5.31458 5.875 5.13333 5.82002 4.97915 5.717C4.82498 5.61399 4.70482 5.46757 4.63386 5.29627C4.56291 5.12496 4.54434 4.93646 4.58052 4.7546C4.61669 4.57275 4.70598 4.4057 4.83709 4.27459C4.9682 4.14348 5.13525 4.05419 5.3171 4.01801C5.49896 3.98184 5.68746 4.00041 5.85877 4.07136C6.03007 4.14232 6.17649 4.26248 6.2795 4.41665C6.38252 4.57082 6.4375 4.75208 6.4375 4.9375C6.4375 5.18614 6.33873 5.4246 6.16291 5.60041C5.9871 5.77623 5.74864 5.875 5.5 5.875Z" fill="#1361A0"/>
</svg>
