<?xml version="1.0"?>
<svg xmlns="http://www.w3.org/2000/svg" width="45" height="45" viewBox="0 0 45 45" fill="none">
<path d="M40.8187 39.0995C40.6331 38.1095 39.9181 32.6335 39.9181 32.6335H4.31934C4.31934 32.6335 3.60434 38.1095 3.41871 39.0995C3.23309 40.0895 5.35402 43.1248 22.1187 43.1248C38.8834 43.1248 41.0043 40.0895 40.8187 39.0995Z" fill="#82AEC0"/>
<path d="M4.30859 32.8001C4.30859 30.7822 12.2836 29.146 22.1183 29.146C31.953 29.146 39.928 30.7822 39.928 32.8001C39.928 34.8179 31.953 36.7876 22.1183 36.7876C12.2836 36.7876 4.30859 34.8179 4.30859 32.8001Z" fill="#E0E0E0"/>
<path d="M33.7298 6.11C32.7536 2.99906 29.5017 1.875 22.1145 1.875C14.7273 1.875 11.4789 2.99906 10.5027 6.11C8.53641 12.3766 6.76953 32.1353 6.76953 32.1353C6.76953 32.1353 8.30609 34.71 22.118 34.71C35.9298 34.71 37.4698 32.1388 37.4698 32.1388C37.4698 32.1388 35.6961 12.3766 33.7298 6.11V6.11Z" fill="#F44336"/>
<path opacity="0.9" d="M6.76758 32.174C6.76758 30.5927 13.6391 29.3105 22.1195 29.3105C30.5998 29.3105 37.4713 30.5927 37.4713 32.174C37.4713 33.7552 30.5998 35.2987 22.1195 35.2987C13.6391 35.2987 6.76758 33.7552 6.76758 32.174V32.174Z" fill="#C62828"/>
<path d="M25.072 12.7829L32.576 5.03818C32.7204 4.91099 32.9335 5.07255 32.851 5.24443L27.2685 14.2026C26.8526 15.0688 27.2204 15.6291 28.1829 15.6051L35.2814 15.5329C35.4739 15.5294 35.5323 15.7907 35.357 15.8697L28.8807 18.3654C28.0042 18.7607 27.8185 19.6991 28.5679 20.2972L36.6426 26.1204C36.7939 26.2407 36.6701 26.4779 36.4845 26.4263L27.296 22.621C26.3714 22.3597 25.9485 22.8719 26.1376 23.8138L29.1007 33.7447C29.1385 33.9338 28.891 34.0369 28.7845 33.8788L23.7279 24.9241C23.1882 24.1301 22.5351 23.9788 22.0779 24.821L17.2276 33.9922C17.1348 34.1607 16.8804 34.0816 16.8976 33.8891L19.4035 23.9926C19.4998 23.0369 19.0598 22.8376 18.166 23.1882L7.76761 28.5197C7.58886 28.5885 7.44448 28.3651 7.58198 28.231L16.3064 20.9882C16.9939 20.3179 16.9629 19.5857 16.052 19.2797L8.77136 16.7979C8.58917 16.736 8.62355 16.4713 8.81261 16.4576L15.9764 16.5951C16.9354 16.5229 17.4201 15.5672 16.9182 14.7491L11.1604 6.44755C11.0607 6.28255 11.2567 6.10037 11.4114 6.2138L19.0907 12.8826C19.871 13.4429 20.5551 13.3913 20.696 12.4426L21.9439 3.50505C21.9714 3.31599 22.2395 3.30224 22.2876 3.48787L23.3739 12.2122C23.6145 13.1438 24.3501 13.4188 25.072 12.7829V12.7829Z" fill="url(#paint0_radial_1582_7958)"/>
<path d="M22.7555 12.2089L25.973 6.40301C26.0692 6.23801 26.3236 6.32395 26.2995 6.51301L25.2958 12.8552C25.1789 13.8074 25.7083 14.2233 26.6089 13.8933L32.9099 11.7758C33.0886 11.7105 33.2295 11.9374 33.0886 12.068L28.1524 16.2824C27.4477 16.9355 27.5714 17.8843 28.4755 18.2108L34.773 20.3455C34.9517 20.4108 34.9139 20.6755 34.7214 20.6858L28.0114 20.8199C27.0524 20.868 26.8152 21.4902 27.2964 22.3221L30.6858 28.1108C30.782 28.2758 30.5792 28.4546 30.428 28.3377L25.3645 24.1439C24.598 23.5664 23.9345 23.6283 23.7695 24.5736L22.5664 31.428C22.532 31.6171 22.2639 31.6239 22.2227 31.4383L20.9714 24.6424C20.7583 23.7074 20.277 23.6593 19.5414 24.2746L14.2133 28.7536C14.0655 28.8774 13.8558 28.7089 13.9452 28.5405L17.0767 22.7861C17.5133 21.9302 17.252 21.2496 16.2895 21.2496L9.53142 21.3355C9.33892 21.3355 9.28735 21.0743 9.46267 20.9986L15.3614 18.7264C16.2449 18.3518 16.3995 17.293 15.6639 16.6743L10.7139 12.6421C10.5661 12.5183 10.6967 12.2846 10.8789 12.3396L17.1249 14.2096C18.0427 14.4914 18.6752 14.2233 18.5067 13.278L17.2108 6.74332C17.1764 6.55426 17.4274 6.45801 17.5305 6.61613L20.9714 12.2055C21.4905 13.0133 22.2777 13.0408 22.7555 12.2089V12.2089Z" fill="#FFD5CA"/>
<defs>
<radialGradient id="paint0_radial_1582_7958" cx="0" cy="0" r="1" gradientUnits="userSpaceOnUse" gradientTransform="translate(22.1196 18.7197) scale(14.9842)">
<stop offset="0.572" stop-color="#FF6E40"/>
<stop offset="0.768" stop-color="#FF7046" stop-opacity="0.541"/>
<stop offset="1" stop-color="#FF7555" stop-opacity="0"/>
</radialGradient>
</defs>
</svg>
