<svg width="20" height="20" viewBox="0 0 20 20" fill="none" xmlns="http://www.w3.org/2000/svg">
<path d="M6.89883 2.25007C6.89883 2.11304 6.84439 1.98162 6.7475 1.88473C6.65061 1.78783 6.51919 1.7334 6.38216 1.7334C6.24513 1.7334 6.11372 1.78783 6.01682 1.88473C5.91993 1.98162 5.86549 2.11304 5.86549 2.25007V2.76673H5.34883C4.93774 2.76673 4.54349 2.93003 4.25281 3.22072C3.96213 3.5114 3.79883 3.90565 3.79883 4.31673V16.7167C3.79883 17.1278 3.96213 17.5221 4.25281 17.8127C4.54349 18.1034 4.93774 18.2667 5.34883 18.2667H11.0322V14.6501C11.0322 14.239 11.1955 13.8447 11.4861 13.554C11.7768 13.2634 12.1711 13.1001 12.5822 13.1001H16.1988V4.31673C16.1988 3.90565 16.0355 3.5114 15.7448 3.22072C15.4542 2.93003 15.0599 2.76673 14.6488 2.76673H14.1322V2.25007C14.1322 2.11304 14.0777 1.98162 13.9808 1.88473C13.8839 1.78783 13.7525 1.7334 13.6155 1.7334C13.4785 1.7334 13.347 1.78783 13.2502 1.88473C13.1533 1.98162 13.0988 2.11304 13.0988 2.25007V2.76673H10.5155V2.25007C10.5155 2.11304 10.4611 1.98162 10.3642 1.88473C10.2673 1.78783 10.1359 1.7334 9.99883 1.7334C9.8618 1.7334 9.73038 1.78783 9.63349 1.88473C9.5366 1.98162 9.48216 2.11304 9.48216 2.25007V2.76673H6.89883V2.25007ZM6.89883 7.41673C6.89883 7.2797 6.95326 7.14829 7.05016 7.05139C7.14705 6.9545 7.27847 6.90006 7.41549 6.90006H12.5822C12.7192 6.90006 12.8506 6.9545 12.9475 7.05139C13.0444 7.14829 13.0988 7.2797 13.0988 7.41673C13.0988 7.55376 13.0444 7.68518 12.9475 7.78207C12.8506 7.87896 12.7192 7.9334 12.5822 7.9334H7.41549C7.27847 7.9334 7.14705 7.87896 7.05016 7.78207C6.95326 7.68518 6.89883 7.55376 6.89883 7.41673ZM7.41549 10.0001H12.5822C12.7192 10.0001 12.8506 10.0545 12.9475 10.1514C13.0444 10.2483 13.0988 10.3797 13.0988 10.5167C13.0988 10.6538 13.0444 10.7852 12.9475 10.8821C12.8506 10.979 12.7192 11.0334 12.5822 11.0334H7.41549C7.27847 11.0334 7.14705 10.979 7.05016 10.8821C6.95326 10.7852 6.89883 10.6538 6.89883 10.5167C6.89883 10.3797 6.95326 10.2483 7.05016 10.1514C7.14705 10.0545 7.27847 10.0001 7.41549 10.0001ZM6.89883 13.6167C6.89883 13.4797 6.95326 13.3483 7.05016 13.2514C7.14705 13.1545 7.27847 13.1001 7.41549 13.1001H9.48216C9.61919 13.1001 9.75061 13.1545 9.8475 13.2514C9.94439 13.3483 9.99883 13.4797 9.99883 13.6167C9.99883 13.7538 9.94439 13.8852 9.8475 13.9821C9.75061 14.079 9.61919 14.1334 9.48216 14.1334H7.41549C7.27847 14.1334 7.14705 14.079 7.05016 13.9821C6.95326 13.8852 6.89883 13.7538 6.89883 13.6167Z" fill="#1361A0"/>
<path d="M15.8794 14.1338H12.5831C12.446 14.1338 12.3146 14.1882 12.2177 14.2851C12.1208 14.382 12.0664 14.5134 12.0664 14.6505V17.9468C12.1191 17.9055 12.1697 17.861 12.2173 17.8125L15.7461 14.2847C15.7936 14.2371 15.8381 14.1865 15.8784 14.1338H15.8794Z" fill="#1361A0"/>
</svg>
