<svg width="17" height="20" viewBox="0 0 17 20" fill="none" xmlns="http://www.w3.org/2000/svg">
<path d="M12.7726 12.327C11.9652 12.327 11.2231 12.6063 10.6372 13.0733L6.97703 10.7856C7.08542 10.2953 7.08542 9.78724 6.97703 9.29694L10.6372 7.00929C11.2231 7.47633 11.9652 7.75558 12.7726 7.75558C14.6661 7.75558 16.2012 6.22054 16.2012 4.32701C16.2012 2.43347 14.6661 0.898438 12.7726 0.898438C10.8791 0.898438 9.34403 2.43347 9.34403 4.32701C9.34403 4.58265 9.37224 4.83165 9.42531 5.07133L5.7651 7.35897C5.17928 6.89197 4.43717 6.61272 3.62974 6.61272C1.73621 6.61272 0.201172 8.14776 0.201172 10.0413C0.201172 11.9348 1.73621 13.4699 3.62974 13.4699C4.43717 13.4699 5.17928 13.1906 5.7651 12.7236L9.42531 15.0113C9.37121 15.2557 9.34396 15.5053 9.34403 15.7556C9.34403 17.6491 10.8791 19.1842 12.7726 19.1842C14.6661 19.1842 16.2012 17.6491 16.2012 15.7556C16.2012 13.862 14.6661 12.327 12.7726 12.327Z" fill="#1361A0"/>
</svg>
