<svg width="20" height="21" viewBox="0 0 20 21" fill="none" xmlns="http://www.w3.org/2000/svg">
<path d="M10 10.1498C9.4 10.1498 9 10.5498 9 11.1498C9 11.5498 9.3 11.8498 9.6 11.9498L9.3 13.3498H10.6L10.3 11.9498C10.7 11.8498 10.9 11.5498 10.9 11.1498C11 10.5498 10.6 10.1498 10 10.1498ZM10.1 5.8498C9.4 5.8498 8.7 6.3498 8.7 7.0498V8.5498H11.4V7.0498C11.3 6.3498 10.8 5.8498 10.1 5.8498ZM10 2.5498L3 5.5498V8.5498C3.1 12.9498 5.9 16.8498 10 18.4498C14.1 16.8498 16.9 12.9498 17 8.5498V5.5498L10 2.5498ZM14 13.5498C14 14.1498 13.6 14.5498 13 14.5498H7C6.4 14.5498 6 14.1498 6 13.5498V9.5498C6 8.9498 6.4 8.5498 7 8.5498H7.3V7.0498C7.4 5.6498 8.6 4.5498 10 4.5498C11.4 4.5498 12.6 5.6498 12.7 7.0498V8.5498H13C13.6 8.5498 14 8.9498 14 9.5498V13.5498Z" fill="#1361A0"/>
</svg>
