<svg width="11" height="11" viewBox="0 0 11 11" fill="none" xmlns="http://www.w3.org/2000/svg">
<path d="M8.4134 7.33349C8.2076 7.33428 8.00408 7.37663 7.81506 7.45802C7.62603 7.5394 7.4554 7.65814 7.3134 7.8071L3.58868 5.94321C3.6803 5.66539 3.6803 5.36548 3.58868 5.08766L7.31951 3.19016C7.58674 3.47176 7.94913 3.64395 8.33625 3.67326C8.72336 3.70256 9.10754 3.58688 9.41412 3.34871C9.72069 3.11053 9.92776 2.76688 9.99508 2.38454C10.0624 2.00219 9.98514 1.60848 9.77834 1.27992C9.57154 0.951366 9.24997 0.711435 8.87613 0.606764C8.50228 0.502094 8.10287 0.540162 7.75553 0.713571C7.40819 0.886979 7.13773 1.18334 6.99673 1.54505C6.85572 1.90675 6.85424 2.30797 6.99257 2.67071L3.2984 4.54988C3.09889 4.30588 2.82879 4.12955 2.52513 4.04508C2.22148 3.9606 1.89913 3.97211 1.60227 4.07803C1.30541 4.18394 1.04858 4.37908 0.866977 4.63669C0.685374 4.8943 0.587891 5.20178 0.587891 5.51696C0.587891 5.83215 0.685374 6.13962 0.866977 6.39723C1.04858 6.65484 1.30541 6.84998 1.60227 6.95589C1.89913 7.06181 2.22148 7.07332 2.52513 6.98885C2.82879 6.90437 3.09889 6.72805 3.2984 6.48405L6.9834 8.33877C6.92113 8.50595 6.88906 8.68287 6.88868 8.86127C6.88868 9.16343 6.97828 9.45881 7.14615 9.71006C7.31403 9.9613 7.55263 10.1571 7.8318 10.2727C8.11096 10.3884 8.41815 10.4186 8.71451 10.3597C9.01087 10.3007 9.28309 10.1552 9.49676 9.94157C9.71042 9.72791 9.85593 9.45568 9.91488 9.15932C9.97383 8.86296 9.94357 8.55578 9.82794 8.27661C9.7123 7.99745 9.51648 7.75884 9.26524 7.59097C9.014 7.42309 8.71862 7.33349 8.41645 7.33349H8.4134ZM8.4134 1.22238C8.5947 1.22238 8.77193 1.27614 8.92267 1.37686C9.07342 1.47759 9.19091 1.62075 9.26029 1.78825C9.32967 1.95575 9.34782 2.14006 9.31245 2.31788C9.27708 2.49569 9.18978 2.65903 9.06158 2.78723C8.93338 2.91542 8.77005 3.00273 8.59223 3.0381C8.41442 3.07347 8.2301 3.05532 8.06261 2.98593C7.89511 2.91655 7.75194 2.79906 7.65122 2.64832C7.55049 2.49757 7.49673 2.32034 7.49673 2.13904C7.49673 1.89593 7.59331 1.66277 7.76522 1.49086C7.93713 1.31896 8.17028 1.22238 8.4134 1.22238ZM2.14034 6.41682C1.95904 6.41682 1.78182 6.36306 1.63107 6.26234C1.48033 6.16161 1.36284 6.01845 1.29346 5.85095C1.22407 5.68345 1.20592 5.49914 1.24129 5.32132C1.27666 5.14351 1.36397 4.98017 1.49216 4.85197C1.62036 4.72378 1.7837 4.63647 1.96151 4.6011C2.13933 4.56573 2.32364 4.58389 2.49114 4.65327C2.65864 4.72265 2.8018 4.84014 2.90252 4.99088C3.00325 5.14163 3.05701 5.31886 3.05701 5.50016C3.05701 5.74327 2.96043 5.97643 2.78853 6.14834C2.61662 6.32025 2.38346 6.41682 2.14034 6.41682ZM8.4134 9.77794C8.2321 9.77794 8.05487 9.72417 7.90413 9.62345C7.75338 9.52272 7.63589 9.37956 7.56651 9.21206C7.49713 9.04456 7.47898 8.86025 7.51435 8.68244C7.54972 8.50462 7.63702 8.34128 7.76522 8.21309C7.89342 8.08489 8.05675 7.99758 8.23457 7.96221C8.41238 7.92684 8.59669 7.945 8.76419 8.01438C8.93169 8.08376 9.07485 8.20125 9.17558 8.352C9.2763 8.50274 9.33007 8.67997 9.33007 8.86127C9.33007 9.10438 9.23349 9.33754 9.06158 9.50945C8.88967 9.68136 8.65651 9.77794 8.4134 9.77794Z" fill="white"/>
</svg>
