<svg width="22" height="22" viewBox="0 0 22 22" fill="none" xmlns="http://www.w3.org/2000/svg">
<rect width="22" height="22" fill="#E2DDDD"/>
<g clip-path="url(#clip0_168_373)">
<rect x="-159" y="-608" width="375" height="812" fill="white"/>
<rect width="375" height="667" transform="translate(-159 -608)" fill="white"/>
<mask id="mask0_168_373" style="mask-type:alpha" maskUnits="userSpaceOnUse" x="-159" y="-608" width="375" height="667">
<rect x="-159" y="-608" width="375" height="667" fill="#C4C4C4"/>
</mask>
<g mask="url(#mask0_168_373)">
<rect x="-482" y="-702" width="1080" height="1080"/>
</g>
<path d="M-173 -54C-173 -65.0457 -164.046 -74 -153 -74H182C193.046 -74 202 -65.0457 202 -54V199H-173V-54Z" fill="white" fill-opacity="0.95"/>
<g filter="url(#filter0_i_168_373)">
<circle cx="9" cy="9" r="9" fill="#247CC2"/>
</g>
<g filter="url(#filter1_i_168_373)">
<circle cx="13" cy="13" r="9" fill="#297EC3" fill-opacity="0.85"/>
</g>
<path d="M10.6692 10.8797C10.6971 10.7772 10.7772 10.6971 10.8797 10.6692L16.4935 9.13814C16.7174 9.07706 16.9229 9.28255 16.8619 9.5065L15.3308 15.1203C15.3029 15.2228 15.2228 15.3029 15.1203 15.3308L9.5065 16.8619C9.28255 16.9229 9.07706 16.7174 9.13814 16.4935L10.6692 10.8797Z" fill="url(#paint0_linear_168_373)"/>
</g>
<defs>
<filter id="filter0_i_168_373" x="0" y="0" width="18" height="18" filterUnits="userSpaceOnUse" color-interpolation-filters="sRGB">
<feFlood flood-opacity="0" result="BackgroundImageFix"/>
<feBlend mode="normal" in="SourceGraphic" in2="BackgroundImageFix" result="shape"/>
<feColorMatrix in="SourceAlpha" type="matrix" values="0 0 0 0 0 0 0 0 0 0 0 0 0 0 0 0 0 0 127 0" result="hardAlpha"/>
<feMorphology radius="4" operator="dilate" in="SourceAlpha" result="effect1_innerShadow_168_373"/>
<feOffset/>
<feGaussianBlur stdDeviation="5"/>
<feComposite in2="hardAlpha" operator="arithmetic" k2="-1" k3="1"/>
<feColorMatrix type="matrix" values="0 0 0 0 1 0 0 0 0 1 0 0 0 0 1 0 0 0 1 0"/>
<feBlend mode="normal" in2="shape" result="effect1_innerShadow_168_373"/>
</filter>
<filter id="filter1_i_168_373" x="4" y="4" width="18" height="18" filterUnits="userSpaceOnUse" color-interpolation-filters="sRGB">
<feFlood flood-opacity="0" result="BackgroundImageFix"/>
<feBlend mode="normal" in="SourceGraphic" in2="BackgroundImageFix" result="shape"/>
<feColorMatrix in="SourceAlpha" type="matrix" values="0 0 0 0 0 0 0 0 0 0 0 0 0 0 0 0 0 0 127 0" result="hardAlpha"/>
<feMorphology radius="2" operator="dilate" in="SourceAlpha" result="effect1_innerShadow_168_373"/>
<feOffset/>
<feGaussianBlur stdDeviation="3.5"/>
<feComposite in2="hardAlpha" operator="arithmetic" k2="-1" k3="1"/>
<feColorMatrix type="matrix" values="0 0 0 0 1 0 0 0 0 1 0 0 0 0 1 0 0 0 1 0"/>
<feBlend mode="normal" in2="shape" result="effect1_innerShadow_168_373"/>
</filter>
<linearGradient id="paint0_linear_168_373" x1="15.8571" y1="10.1429" x2="6.14286" y2="19.8571" gradientUnits="userSpaceOnUse">
<stop stop-color="white"/>
<stop offset="1" stop-color="#1361A0"/>
</linearGradient>
<clipPath id="clip0_168_373">
<rect x="-159" y="-608" width="375" height="812" fill="white"/>
</clipPath>
</defs>
</svg>
