<svg width="16" height="16" viewBox="0 0 16 16" fill="none" xmlns="http://www.w3.org/2000/svg">
<path d="M14.6413 0H1.35733C0.9974 0.000176654 0.65226 0.143238 0.397749 0.397749C0.143238 0.65226 0.000176654 0.9974 0 1.35733L0 14.6427C0 15.392 0.608 16 1.35733 16H14.6433C15.0031 16 15.3482 15.8571 15.6026 15.6026C15.8571 15.3482 16 15.0031 16 14.6433V1.358C15.9998 0.998128 15.8567 0.653057 15.6022 0.398651C15.3477 0.144246 15.0025 0.00133329 14.6427 0.00133333H14.642L14.6413 0ZM13.2267 12.5087H10.3667V9.402H5.646V12.5087H2.766V3.47933H5.646V6.586H10.3667V3.47933H13.2267V12.5087Z" fill="white"/>
</svg>
