<svg width="11" height="11" viewBox="0 0 11 11" fill="none" xmlns="http://www.w3.org/2000/svg">
<path d="M5.83398 1.1665C6.76224 1.1665 7.65248 1.53525 8.30886 2.19163C8.96524 2.84801 9.33399 3.73825 9.33399 4.6665C9.33399 4.79911 9.38666 4.92629 9.48043 5.02006C9.5742 5.11383 9.70138 5.1665 9.83399 5.1665C9.96659 5.1665 10.0938 5.11383 10.1875 5.02006C10.2813 4.92629 10.334 4.79911 10.334 4.6665C10.334 3.47303 9.85988 2.32844 9.01597 1.48452C8.17205 0.64061 7.02746 0.166504 5.83398 0.166504C5.70138 0.166504 5.5742 0.219182 5.48043 0.31295C5.38666 0.406719 5.33398 0.533896 5.33398 0.666504C5.33398 0.799112 5.38666 0.926289 5.48043 1.02006C5.5742 1.11383 5.70138 1.1665 5.83398 1.1665ZM10.209 7.1215C10.1815 7.04124 10.134 6.96929 10.071 6.91243C10.008 6.85558 9.93164 6.81568 9.84899 6.7965L6.84899 6.1115C6.76755 6.09304 6.6828 6.09526 6.60244 6.11797C6.52209 6.14068 6.44871 6.18315 6.38899 6.2415C6.31898 6.3065 6.31399 6.3115 5.98899 6.9315C4.91058 6.43458 4.04648 5.56693 3.55398 4.4865C4.18898 4.1665 4.19398 4.1665 4.25899 4.0915C4.31734 4.03178 4.35981 3.9584 4.38252 3.87805C4.40522 3.79769 4.40745 3.71294 4.38898 3.6315L3.70398 0.666504C3.68481 0.583852 3.64491 0.507439 3.58806 0.44446C3.5312 0.38148 3.45925 0.334005 3.37898 0.306504C3.26222 0.264799 3.14164 0.234654 3.01898 0.216504C2.89261 0.187202 2.76365 0.170454 2.63398 0.166504C2.02399 0.166504 1.43897 0.408825 1.00764 0.840158C0.576305 1.27149 0.333984 1.85651 0.333984 2.4665C0.33663 4.50786 1.14873 6.46485 2.59218 7.9083C4.03564 9.35176 5.99263 10.1639 8.03399 10.1665C8.33603 10.1665 8.63511 10.107 8.91416 9.99143C9.19321 9.87584 9.44676 9.70642 9.66033 9.49285C9.87391 9.27927 10.0433 9.02572 10.1589 8.74668C10.2745 8.46763 10.334 8.16854 10.334 7.8665C10.3341 7.73924 10.3241 7.61217 10.304 7.4865C10.283 7.36231 10.2512 7.24018 10.209 7.1215Z" fill="#1361A0"/>
</svg>
